<?xml version="1.0" encoding="utf-8"?>
<!-- Generator: Adobe Illustrator 24.2.0, SVG Export Plug-In . SVG Version: 6.00 Build 0)  -->
<svg version="1.1" id="Layer_1" xmlns="http://www.w3.org/2000/svg" xmlns:xlink="http://www.w3.org/1999/xlink" x="0px" y="0px"
	 viewBox="0 0 142 142" style="enable-background:new 0 0 142 142;" xml:space="preserve">
<style type="text/css">
	.st0{opacity:0.9;}
	.st1{fill:#231F20;enable-background:new    ;}
	.st2{fill:#E5E5E5;}
</style>
<g id="Layer_2_1_" class="st0">
	<g id="Layer_1-2">
		<polygon class="st1" points="-36.2,73.2 9.8,73.2 9.8,27.2 32.8,27.2 32.8,73.2 78.8,73.2 78.8,-7.3 78.8,-30.3 -36.2,-30.3 		"/>
		<polygon class="st1" points="101.8,199.8 177.5,199.8 101.8,124 		"/>
		<polygon class="st1" points="32.8,96.2 32.8,142.3 9.8,142.3 9.8,96.2 -36.2,96.2 -36.2,199.8 78.8,199.8 78.8,96.2 		"/>
		<path class="st1" d="M78.8-30.3C113.7-30.3,142-1.9,142,33c0,25.9-15.8,49.2-39.9,58.8l91.7,91.7V-30.3H78.8z"/>
		<path class="st1" d="M119,33c0-13.2-6.4-25.5-17.3-33v66C112.6,58.5,119,46.2,119,33z"/>
	</g>
</g>
<path class="st2" d="M0.5,84.3c0.1-0.2,0.2-0.5,0.3-0.7c0.1-0.2,0.3-0.4,0.4-0.5s0.3-0.2,0.5-0.3c0.2-0.1,0.4-0.1,0.6-0.1
	c0.1,0,0.2,0,0.4,0s0.2,0.1,0.3,0.1l0,0.4c0,0.1-0.1,0.1-0.1,0.1c0,0-0.1,0-0.2,0c-0.1,0-0.2,0-0.4,0c-0.2,0-0.4,0-0.6,0.1
	c-0.2,0.1-0.3,0.2-0.5,0.3C1.1,83.9,1,84,0.9,84.2c-0.1,0.2-0.2,0.4-0.3,0.7v3.9H0v-6h0.3c0.1,0,0.1,0,0.1,0c0,0,0,0.1,0.1,0.1
	L0.5,84.3z"/>
<path class="st2" d="M33.6,88.8h-0.5c-0.1,0-0.1,0-0.1,0c0,0-0.1-0.1-0.1-0.1l-1-2.5h-4.2l-1,2.5c0,0,0,0.1-0.1,0.1s-0.1,0-0.1,0H26
	l3.5-8.5h0.6L33.6,88.8z M31.7,85.7L30,81.4c-0.1-0.1-0.1-0.3-0.2-0.5c0,0.1-0.1,0.2-0.1,0.3c0,0.1-0.1,0.2-0.1,0.2l-1.7,4.3H31.7z"
	/>
<path class="st2" d="M59.4,82.9v6h-0.3c-0.1,0-0.2-0.1-0.2-0.2l-0.1-0.9c-0.3,0.3-0.6,0.6-1,0.8c-0.4,0.2-0.8,0.3-1.2,0.3
	c-0.3,0-0.6-0.1-0.9-0.2c-0.2-0.1-0.5-0.3-0.6-0.4c-0.2-0.2-0.3-0.4-0.4-0.7s-0.1-0.6-0.1-0.9v-3.8h0.6v3.8c0,0.6,0.1,1,0.4,1.3
	s0.6,0.5,1.2,0.5c0.4,0,0.8-0.1,1.1-0.3c0.3-0.2,0.6-0.5,0.9-0.8v-4.5H59.4z"/>
<path class="st2" d="M87.5,80.1v8.7h-0.3c-0.1,0-0.2-0.1-0.2-0.2l-0.1-0.9c-0.3,0.4-0.6,0.6-0.9,0.9c-0.4,0.2-0.7,0.3-1.2,0.3
	c-0.7,0-1.3-0.3-1.7-0.8c-0.4-0.5-0.6-1.3-0.6-2.3c0-0.4,0.1-0.8,0.2-1.2c0.1-0.4,0.3-0.7,0.5-1c0.2-0.3,0.5-0.5,0.8-0.7
	c0.3-0.2,0.7-0.2,1.1-0.2c0.4,0,0.8,0.1,1.1,0.2c0.3,0.1,0.6,0.4,0.8,0.7v-3.5H87.5z M86.9,84.1c-0.2-0.3-0.5-0.6-0.8-0.7
	c-0.3-0.1-0.6-0.2-1-0.2c-0.4,0-0.7,0.1-0.9,0.2c-0.3,0.1-0.5,0.3-0.7,0.5c-0.2,0.2-0.3,0.5-0.4,0.8c-0.1,0.3-0.1,0.7-0.1,1.1
	c0,0.9,0.2,1.5,0.5,2c0.3,0.4,0.8,0.6,1.4,0.6c0.4,0,0.8-0.1,1.1-0.3c0.3-0.2,0.6-0.5,0.9-0.9V84.1z"/>
<path class="st2" d="M114.8,80.8c0,0.1,0,0.1,0,0.2c0,0.1-0.1,0.1-0.1,0.2c0,0-0.1,0.1-0.2,0.1c-0.1,0-0.1,0-0.2,0
	c-0.1,0-0.1,0-0.2,0c-0.1,0-0.1-0.1-0.2-0.1c0,0-0.1-0.1-0.1-0.2c0-0.1,0-0.1,0-0.2c0-0.1,0-0.1,0-0.2c0-0.1,0.1-0.1,0.1-0.2
	c0,0,0.1-0.1,0.2-0.1s0.1,0,0.2,0c0.1,0,0.1,0,0.2,0s0.1,0.1,0.2,0.1c0,0,0.1,0.1,0.1,0.2C114.8,80.7,114.8,80.7,114.8,80.8z
	 M114.5,82.9v6H114v-6H114.5z"/>
<path class="st2" d="M139.3,82.8c0.4,0,0.8,0.1,1.1,0.2s0.6,0.4,0.9,0.6s0.4,0.6,0.5,1s0.2,0.8,0.2,1.3c0,0.5-0.1,0.9-0.2,1.3
	c-0.1,0.4-0.3,0.7-0.5,1s-0.5,0.5-0.9,0.6c-0.3,0.1-0.7,0.2-1.1,0.2c-0.4,0-0.8-0.1-1.1-0.2c-0.3-0.1-0.6-0.3-0.9-0.6
	c-0.2-0.3-0.4-0.6-0.5-1c-0.1-0.4-0.2-0.8-0.2-1.3c0-0.5,0.1-0.9,0.2-1.3s0.3-0.7,0.5-1c0.2-0.3,0.5-0.5,0.9-0.6
	C138.5,82.8,138.9,82.8,139.3,82.8z M139.3,88.4c0.4,0,0.7-0.1,0.9-0.2c0.3-0.1,0.5-0.3,0.7-0.5c0.2-0.2,0.3-0.5,0.4-0.8
	c0.1-0.3,0.1-0.7,0.1-1.1c0-0.4,0-0.8-0.1-1.1c-0.1-0.3-0.2-0.6-0.4-0.8c-0.2-0.2-0.4-0.4-0.7-0.5c-0.3-0.1-0.6-0.2-0.9-0.2
	c-0.4,0-0.7,0.1-0.9,0.2c-0.3,0.1-0.5,0.3-0.7,0.5c-0.2,0.2-0.3,0.5-0.4,0.8c-0.1,0.3-0.1,0.7-0.1,1.1c0,0.4,0,0.8,0.1,1.1
	c0.1,0.3,0.2,0.6,0.4,0.8c0.2,0.2,0.4,0.4,0.7,0.5C138.6,88.4,138.9,88.4,139.3,88.4z"/>
</svg>
