<?xml version="1.0" encoding="utf-8"?>
<!-- Generator: Adobe Illustrator 24.2.0, SVG Export Plug-In . SVG Version: 6.00 Build 0)  -->
<svg version="1.1" id="Layer_1" xmlns="http://www.w3.org/2000/svg" xmlns:xlink="http://www.w3.org/1999/xlink" x="0px" y="0px"
	 viewBox="0 0 230 230" style="enable-background:new 0 0 230 230;" xml:space="preserve">
<style type="text/css">
	.st0{opacity:0.9;}
	.st1{fill:#231F20;enable-background:new    ;}
	.st2{fill:#FFFFFF;}
</style>
<g id="Layer_2_1_" class="st0">
	<g id="Layer_1-2">
		<polygon class="st1" points="0,103.5 46,103.5 46,57.5 69,57.5 69,103.5 115,103.5 115,23 115,0 0,0 		"/>
		<polygon class="st1" points="138,230 213.7,230 138,154.3 		"/>
		<polygon class="st1" points="69,126.5 69,172.5 46,172.5 46,126.5 0,126.5 0,230 115,230 115,126.5 		"/>
		<path class="st1" d="M115,0c34.9,0,63.3,28.3,63.3,63.2c0,25.9-15.8,49.2-39.9,58.8l91.7,91.7V0H115z"/>
		<path class="st1" d="M155.3,63.2c0-13.2-6.4-25.5-17.3-33v66C148.8,88.7,155.2,76.4,155.3,63.2z"/>
	</g>
</g>
<g>
	<path class="st2" d="M3.4,112.4c0.3-0.3,0.6-0.5,1-0.7c0.3-0.2,0.7-0.2,1.2-0.2c0.3,0,0.6,0.1,0.8,0.2c0.2,0.1,0.4,0.2,0.6,0.4
		c0.2,0.2,0.3,0.4,0.4,0.7c0.1,0.3,0.1,0.6,0.1,0.9v3.9H7.2c-0.1,0-0.2-0.1-0.2-0.2l-0.1-0.8c-0.2,0.2-0.3,0.3-0.5,0.4
		c-0.2,0.1-0.3,0.2-0.5,0.3c-0.2,0.1-0.4,0.2-0.6,0.2c-0.2,0-0.4,0.1-0.7,0.1c-0.2,0-0.4,0-0.6-0.1c-0.2-0.1-0.4-0.2-0.5-0.3
		s-0.3-0.3-0.4-0.5c-0.1-0.2-0.1-0.4-0.1-0.7c0-0.3,0.1-0.5,0.2-0.7s0.4-0.4,0.7-0.6s0.7-0.3,1.2-0.4c0.5-0.1,1.1-0.2,1.7-0.2v-0.6
		c0-0.6-0.1-1-0.4-1.3c-0.2-0.3-0.6-0.4-1.1-0.4c-0.3,0-0.5,0-0.7,0.1c-0.2,0.1-0.4,0.2-0.5,0.3c-0.1,0.1-0.3,0.2-0.3,0.3
		s-0.2,0.1-0.2,0.1c0,0-0.1,0-0.1,0c0,0-0.1,0-0.1-0.1L3.4,112.4z M6.9,114.6c-0.6,0-1.1,0.1-1.5,0.1s-0.7,0.2-1,0.3
		c-0.3,0.1-0.5,0.3-0.6,0.4s-0.2,0.4-0.2,0.6c0,0.2,0,0.4,0.1,0.5c0.1,0.1,0.2,0.3,0.3,0.4c0.1,0.1,0.2,0.2,0.4,0.2
		c0.1,0,0.3,0.1,0.4,0.1c0.2,0,0.4,0,0.6-0.1s0.4-0.1,0.5-0.2s0.3-0.2,0.5-0.3c0.1-0.1,0.3-0.3,0.4-0.4V114.6z"/>
	<path class="st2" d="M39.9,113c0.1-0.2,0.2-0.5,0.3-0.7c0.1-0.2,0.3-0.4,0.4-0.5s0.3-0.2,0.5-0.3c0.2-0.1,0.4-0.1,0.6-0.1
		c0.1,0,0.2,0,0.4,0s0.2,0.1,0.3,0.1l0,0.4c0,0.1-0.1,0.1-0.1,0.1c0,0-0.1,0-0.2,0c-0.1,0-0.2,0-0.4,0c-0.2,0-0.4,0-0.6,0.1
		c-0.2,0.1-0.3,0.2-0.5,0.3c-0.1,0.1-0.3,0.3-0.4,0.5c-0.1,0.2-0.2,0.4-0.3,0.7v3.9h-0.6v-6h0.3c0.1,0,0.1,0,0.1,0
		c0,0,0,0.1,0.1,0.1L39.9,113z"/>
	<path class="st2" d="M77.3,112.4C77.2,112.4,77.2,112.4,77.3,112.4c-0.1,0.1-0.1,0.1-0.1,0.1c0,0-0.1,0-0.2-0.1
		c-0.1-0.1-0.2-0.1-0.3-0.2c-0.1-0.1-0.3-0.1-0.4-0.2c-0.2-0.1-0.4-0.1-0.6-0.1c-0.3,0-0.6,0.1-0.9,0.2s-0.5,0.3-0.7,0.5
		s-0.3,0.5-0.4,0.8c-0.1,0.3-0.1,0.7-0.1,1.1c0,0.4,0,0.8,0.1,1.1s0.2,0.6,0.4,0.8c0.2,0.2,0.4,0.4,0.7,0.5c0.3,0.1,0.5,0.2,0.9,0.2
		c0.3,0,0.5,0,0.7-0.1s0.4-0.1,0.5-0.2s0.2-0.2,0.3-0.2c0.1-0.1,0.1-0.1,0.2-0.1s0.1,0,0.1,0.1l0.1,0.2c-0.1,0.1-0.2,0.2-0.3,0.3
		c-0.1,0.1-0.3,0.2-0.5,0.3c-0.2,0.1-0.4,0.1-0.6,0.2s-0.4,0.1-0.6,0.1c-0.4,0-0.7-0.1-1-0.2c-0.3-0.1-0.6-0.3-0.8-0.6
		c-0.2-0.3-0.4-0.6-0.5-1s-0.2-0.8-0.2-1.3c0-0.5,0.1-0.9,0.2-1.2c0.1-0.4,0.3-0.7,0.5-1s0.5-0.5,0.8-0.6c0.3-0.2,0.7-0.2,1.1-0.2
		c0.4,0,0.7,0.1,1,0.2c0.3,0.1,0.6,0.3,0.8,0.5L77.3,112.4z"/>
	<path class="st2" d="M109.5,112.6c0.3-0.3,0.6-0.6,0.9-0.8c0.4-0.2,0.8-0.3,1.2-0.3c0.3,0,0.6,0.1,0.9,0.2s0.5,0.3,0.6,0.5
		s0.3,0.4,0.4,0.7s0.1,0.6,0.1,0.9v3.8H113v-3.8c0-0.6-0.1-1-0.4-1.3c-0.3-0.3-0.6-0.5-1.2-0.5c-0.4,0-0.8,0.1-1.1,0.3
		c-0.3,0.2-0.6,0.5-0.9,0.8v4.5h-0.6v-8.7h0.6V112.6z"/>
</g>
</svg>
