<?xml version="1.0" encoding="utf-8"?>
<!-- Generator: Adobe Illustrator 24.2.0, SVG Export Plug-In . SVG Version: 6.00 Build 0)  -->
<svg version="1.1" id="Layer_1" xmlns="http://www.w3.org/2000/svg" xmlns:xlink="http://www.w3.org/1999/xlink" x="0px" y="0px"
	 viewBox="0 0 230 230" style="enable-background:new 0 0 230 230;" xml:space="preserve">
<style type="text/css">
	.st0{fill:none;}
	.st1{fill:#231F20;enable-background:new    ;}
	.st2{fill:#E5E5E5;}
</style>
<g>
	<path class="st0" d="M48.2,131.1c0,0.2-0.1,0.3-0.1,0.4c0,0.1-0.1,0.3-0.1,0.4l-2.8,6.9h6.2l-2.8-6.9
		C48.4,131.7,48.3,131.4,48.2,131.1z"/>
	<path class="st0" d="M139.5,135.1c-0.4-0.2-1-0.3-1.5-0.3c-0.6,0-1.1,0.1-1.5,0.3c-0.4,0.2-0.8,0.5-1.1,0.9
		c-0.3,0.4-0.5,0.8-0.7,1.4c-0.1,0.5-0.2,1.1-0.2,1.7c0,1.4,0.3,2.5,0.8,3.2c0.5,0.7,1.3,1,2.3,1c0.6,0,1.2-0.2,1.7-0.5
		c0.5-0.3,1-0.8,1.4-1.4v-5.1C140.4,135.7,140,135.3,139.5,135.1z"/>
	<polygon class="st1" points="15.9,44.1 53.1,44.1 53.1,118.6 127.6,118.6 127.6,0 0,0 0,118.6 15.9,118.6 	"/>
	<polygon class="st1" points="164.9,230 194,230 164.9,200.9 	"/>
	<rect x="53.1" y="155.9" class="st1" width="74.5" height="74.1"/>
	<rect y="155.9" class="st1" width="15.9" height="74.1"/>
	<path class="st1" d="M230,0h-15c9.1,14.8,14.5,32.1,15,50.7V0z"/>
	<path class="st1" d="M230,57.2c-1.2,32.8-18,62.7-44.5,80.8l0,0l0,0l0,0c-5.9,4-13.3,8-20.1,10.7l64.6,64.6"/>
	<path class="st1" d="M192.8,53.4c0-21.3-10.4-41.3-27.9-53.4v106.9C182.4,94.7,192.8,74.8,192.8,53.4z"/>
	<g>
		<path class="st2" d="M1.7,137.6c0.1-0.4,0.3-0.8,0.5-1.2c0.2-0.3,0.4-0.6,0.6-0.8c0.2-0.2,0.5-0.4,0.8-0.5c0.3-0.1,0.6-0.2,1-0.2
			c0.3,0,0.5,0,0.6,0.1c0.2,0,0.3,0.1,0.4,0.1c0.1,0,0.2-0.1,0.2-0.2l0.1-0.6c-0.1-0.1-0.3-0.2-0.5-0.2C5,134,4.8,134,4.6,134
			c-0.4,0-0.7,0.1-1,0.2c-0.3,0.1-0.6,0.3-0.8,0.5s-0.5,0.5-0.7,0.8c-0.2,0.3-0.4,0.7-0.5,1.1l-0.1-2c0-0.1,0-0.2-0.1-0.2
			c0,0-0.1-0.1-0.2-0.1H0.7v9.7h0.9V137.6z"/>
		<path class="st2" d="M47.8,130.1l-5.6,13.8h0.8c0.1,0,0.2,0,0.2-0.1c0.1-0.1,0.1-0.1,0.1-0.2l1.6-4h6.8l1.6,4
			c0,0.1,0.1,0.1,0.1,0.2c0.1,0,0.1,0.1,0.2,0.1h0.8l-5.6-13.8H47.8z M45.2,138.9l2.8-6.9c0.1-0.1,0.1-0.2,0.1-0.4
			c0-0.1,0.1-0.3,0.1-0.4c0.1,0.3,0.2,0.6,0.3,0.8l2.8,6.9H45.2z"/>
		<path class="st2" d="M95.3,141.5c-0.4,0.6-0.9,1-1.5,1.3c-0.5,0.3-1.1,0.5-1.8,0.5c-0.8,0-1.5-0.3-1.9-0.8s-0.6-1.2-0.6-2.1v-6.2
			h-0.9v6.2c0,0.6,0.1,1.1,0.2,1.5c0.1,0.4,0.3,0.8,0.6,1.1c0.3,0.3,0.6,0.6,1,0.7c0.4,0.2,0.9,0.3,1.4,0.3c0.7,0,1.4-0.2,2-0.5
			c0.6-0.3,1.1-0.8,1.6-1.3l0.1,1.4c0,0.2,0.1,0.3,0.3,0.3h0.5v-9.7h-0.9V141.5z"/>
		<path class="st2" d="M140.7,135.5c-0.4-0.5-0.8-0.8-1.3-1.1c-0.5-0.2-1-0.4-1.7-0.4c-0.7,0-1.3,0.1-1.8,0.4
			c-0.5,0.3-1,0.6-1.3,1.1c-0.4,0.4-0.6,1-0.8,1.6c-0.2,0.6-0.3,1.3-0.3,2c0,1.6,0.3,2.9,1,3.7c0.7,0.8,1.6,1.2,2.8,1.2
			c0.7,0,1.4-0.2,1.9-0.5c0.6-0.3,1.1-0.8,1.5-1.4l0.1,1.5c0,0.2,0.1,0.3,0.3,0.3h0.5v-14.1h-0.9V135.5z M140.7,141.4
			c-0.4,0.6-0.9,1.1-1.4,1.4c-0.5,0.3-1.1,0.5-1.7,0.5c-1,0-1.8-0.3-2.3-1c-0.5-0.7-0.8-1.7-0.8-3.2c0-0.6,0.1-1.2,0.2-1.7
			c0.1-0.5,0.4-1,0.7-1.4c0.3-0.4,0.6-0.7,1.1-0.9c0.4-0.2,0.9-0.3,1.5-0.3c0.6,0,1.1,0.1,1.5,0.3c0.5,0.2,0.9,0.6,1.2,1.2V141.4z"
			/>
		<path class="st2" d="M184.4,131.5c0.1,0.1,0.2,0.1,0.3,0.2c0.1,0,0.2,0.1,0.3,0.1c0.1,0,0.2,0,0.3-0.1c0.1,0,0.2-0.1,0.3-0.2
			c0.1-0.1,0.1-0.2,0.2-0.3c0-0.1,0.1-0.2,0.1-0.3c0-0.1,0-0.2-0.1-0.3c0-0.1-0.1-0.2-0.2-0.3c-0.1-0.1-0.2-0.1-0.3-0.2
			c-0.1,0-0.2-0.1-0.3-0.1c-0.1,0-0.2,0-0.3,0.1c-0.1,0-0.2,0.1-0.3,0.2c-0.1,0.1-0.1,0.2-0.2,0.3c0,0.1-0.1,0.2-0.1,0.3
			c0,0.1,0,0.2,0.1,0.3C184.3,131.3,184.3,131.4,184.4,131.5z"/>
		<polygon class="st2" points="185.5,143.9 185.5,138 185.5,134.2 184.6,134.2 184.6,138.6 184.6,143.9 		"/>
		<path class="st2" d="M228.6,135.4c-0.4-0.4-0.8-0.8-1.4-1c-0.5-0.2-1.2-0.4-1.9-0.4c-0.7,0-1.3,0.1-1.9,0.4c-0.5,0.2-1,0.6-1.4,1
			c-0.4,0.4-0.7,1-0.9,1.6c-0.2,0.6-0.3,1.3-0.3,2.1c0,0.8,0.1,1.4,0.3,2c0.2,0.6,0.5,1.1,0.9,1.6c0.4,0.4,0.8,0.8,1.4,1
			c0.5,0.2,1.2,0.4,1.9,0.4c0.7,0,1.3-0.1,1.9-0.4c0.5-0.2,1-0.6,1.4-1c0.4-0.4,0.7-1,0.9-1.6c0.2-0.6,0.3-1.3,0.3-2
			c0-0.8-0.1-1.4-0.3-2.1C229.3,136.4,229,135.8,228.6,135.4z M228.6,140.8c-0.1,0.5-0.4,1-0.6,1.3c-0.3,0.4-0.6,0.7-1.1,0.9
			c-0.4,0.2-0.9,0.3-1.5,0.3c-0.6,0-1.1-0.1-1.5-0.3c-0.4-0.2-0.8-0.5-1.1-0.9c-0.3-0.4-0.5-0.8-0.7-1.3c-0.1-0.5-0.2-1.1-0.2-1.8
			c0-0.6,0.1-1.2,0.2-1.7c0.1-0.5,0.4-1,0.7-1.3c0.3-0.4,0.6-0.7,1.1-0.9c0.4-0.2,0.9-0.3,1.5-0.3c0.6,0,1.1,0.1,1.5,0.3
			c0.4,0.2,0.8,0.5,1.1,0.9c0.3,0.4,0.5,0.8,0.6,1.3c0.1,0.5,0.2,1.1,0.2,1.7C228.8,139.7,228.8,140.3,228.6,140.8z"/>
	</g>
</g>
</svg>
