<?xml version="1.0" encoding="utf-8"?>
<!-- Generator: Adobe Illustrator 24.2.0, SVG Export Plug-In . SVG Version: 6.00 Build 0)  -->
<svg version="1.1" id="Layer_1" xmlns="http://www.w3.org/2000/svg" xmlns:xlink="http://www.w3.org/1999/xlink" x="0px" y="0px"
	 viewBox="0 0 230 230" style="enable-background:new 0 0 230 230;" xml:space="preserve">
<style type="text/css">
	.st0{fill:#FFFFFF;}
	.st1{fill:none;stroke:#FF0000;stroke-width:4.5;}
	.st2{stroke:#000000;}
	.st3{font-family:'ArialMT';}
	.st4{font-size:12px;}
	.st5{font-size:11.991px;}
	.st6{font-size:12.0156px;}
	.st7{font-size:12.0054px;}
	.st8{stroke:#FF0000;}
	.st9{fill:#FF0000;}
	.st10{font-size:12.0342px;}
	.st11{stroke:#000000;stroke-width:0.5;}
	.st12{stroke:#FF0000;stroke-width:0.5;}
	.st13{stroke:#000000;stroke-width:3;stroke-linecap:round;}
	.st14{font-size:9px;}
	.st15{font-size:8.9752px;}
	.st16{stroke:#000000;stroke-width:2;stroke-linecap:round;}
	.st17{fill:none;}
</style>
<rect x="7.5" y="7.5" class="st0" width="215" height="110"/>
<path class="st1" d="M147.6,53.3c18,3.6,35.3,10,51.2,18.9"/>
<path class="st2" d="M33.6,73.6L29,65.6"/>
<text transform="matrix(0.8725 -0.4886 0.4886 0.8725 21.3299 65.3998)" class="st3 st4">20</text>
<path class="st2" d="M59.3,61.9l-3.1-8.8"/>
<text transform="matrix(0.9425 -0.3341 0.3341 0.9425 47.95 52.4199)" class="st3 st4">10</text>
<path class="st2" d="M75.7,57.1l-2.2-9"/>
<text transform="matrix(0.9707 -0.2402 0.2402 0.9707 68.9606 45.5605)" class="st3 st5">7</text>
<path class="st2" d="M90.5,54.2L89.2,45"/>
<text transform="matrix(0.9887 -0.1498 0.1498 0.9887 85.0098 42.1901)" class="st3 st6">5</text>
<path class="st2" d="M109.5,52.4l-0.3-9.3"/>
<text transform="matrix(0.9996 -2.998651e-02 2.998651e-02 0.9996 105.5394 39.5692)" class="st3 st7">3</text>
<path class="st2" d="M120.8,52.4l0.3-9.3"/>
<text transform="matrix(0.9994 3.472507e-02 -3.472507e-02 0.9994 117.8 38.9899)" class="st3 st4">2</text>
<path class="st2" d="M133.5,53.4l1-9.2"/>
<text transform="matrix(0.9938 0.1108 -0.1108 0.9938 131.52 40.21)" class="st3 st4">1</text>
<path class="st2" d="M147.5,55.5l1.8-9.1"/>
<text transform="matrix(0.9808 0.1951 -0.1951 0.9808 146.8 42.3599)" class="st3 st4">0</text>
<path class="st8" d="M163.1,59.4l2.7-8.9"/>
<text transform="matrix(0.9573 0.2892 -0.2892 0.9573 163.6493 46.299)" class="st9 st3 st10">1</text>
<path class="st8" d="M179.9,65.5l3.6-8.5"/>
<text transform="matrix(0.9212 0.3891 -0.3891 0.9212 182.0002 52.62)" class="st9 st3 st4">2</text>
<path class="st8" d="M197.9,74.4l4.6-8.1"/>
<text transform="matrix(0.8676 0.4973 -0.4973 0.8676 201.6599 62.01)" class="st9 st3 st4">3</text>
<path class="st11" d="M82.7,55.5l-1.3-6.8"/>
<path class="st11" d="M99.5,53.1l-0.7-6.9"/>
<path class="st11" d="M140.3,54.3l1.1-6.8"/>
<path class="st11" d="M155.1,57.3l1.7-6.8"/>
<path class="st12" d="M155.1,57.3l1.7-6.8"/>
<path class="st13" d="M47.1,71.9L47.1,71.9"/>
<text transform="matrix(0.9081 -0.4187 0.4187 0.9081 47.29 83.4399)" class="st3 st14">20</text>
<path class="st13" d="M71,63.1L71,63.1"/>
<text transform="matrix(0.9627 -0.2707 0.2707 0.9627 69.1606 74.2205)" class="st3 st15">40</text>
<path class="st13" d="M95.9,58.1L95.9,58.1"/>
<text transform="matrix(0.9931 -0.1175 0.1175 0.9931 92.59 68.6)" class="st3 st14">60</text>
<path class="st13" d="M121.4,57.1L121.4,57.1"/>
<text transform="matrix(0.9992 3.925982e-02 -3.925982e-02 0.9992 116.07 67.17)" class="st3 st14">80</text>
<path class="st13" d="M146.7,60.1L146.7,60.1"/>
<text transform="matrix(0.9808 0.1951 -0.1951 0.9808 137.04 68.2801)" class="st3 st14">100</text>
<path class="st16" d="M35.8,77.6L35.8,77.6"/>
<path class="st16" d="M58.9,67L58.9,67"/>
<path class="st16" d="M83.4,60.1L83.4,60.1"/>
<path class="st16" d="M108.6,57.1L108.6,57.1"/>
<path class="st16" d="M134.1,58.1L134.1,58.1"/>
<text transform="matrix(1 0 0 1 98.5 97.23)" class="st3 st4">rAudio</text>
<rect x="10" y="10" class="st17" width="210.1" height="105"/>
<image style="overflow:visible;enable-background:new    ;" width="239" height="135" xlink:href="8FA0A029.png"  transform="matrix(1 0 0 1 -6.75 -3.1)">
</image>
<path d="M0,0v230h230V0H0z M220,115H10V10h210V115z"/>
</svg>
