<?xml version="1.0" encoding="utf-8"?>
<!-- Generator: Adobe Illustrator 24.2.0, SVG Export Plug-In . SVG Version: 6.00 Build 0)  -->
<svg version="1.1" xmlns="http://www.w3.org/2000/svg" xmlns:xlink="http://www.w3.org/1999/xlink" x="0px" y="0px"
	 viewBox="0 0 230 230" style="enable-background:new 0 0 230 230;" xml:space="preserve">
<style type="text/css">
	.st0{fill:#FFFFFF;}
	.st1{fill:none;stroke:#FF0000;stroke-width:4.5;}
	.st2{stroke:#000000;}
	.st3{font-family:'ArialMT';}
	.st4{font-size:12px;}
	.st5{stroke:#FF0000;}
	.st6{fill:#FF0000;}
	.st7{stroke:#000000;stroke-width:0.5;}
	.st8{stroke:#FF0000;stroke-width:0.5;}
	.st9{stroke:#000000;stroke-width:3;stroke-linecap:round;}
	.st10{font-size:9px;}
	.st11{stroke:#000000;stroke-width:2;stroke-linecap:round;}
	.st12{fill:none;}
	.st13{fill:#5E5E5E;}
	.st14{fill:#414042;}
</style>
<g id="Layer_5">
	<rect class="st0" width="230" height="125"/>
</g>
<g id="Layer_1">
	<g>
		<path class="st1" d="M147.2,53.3c18,3.6,35.3,10,51.2,18.9"/>
		<path class="st2" d="M33.1,73.6l-4.6-8.1"/>
		<text transform="matrix(0.8725 -0.4886 0.4886 0.8725 20.8045 65.2685)" class="st3 st4">20</text>
		<path class="st2" d="M58.9,61.9l-3.1-8.8"/>
		<text transform="matrix(0.9425 -0.3341 0.3341 0.9425 46.2779 52.1054)" class="st3 st4">10</text>
		<path class="st2" d="M75.2,57.1l-2.2-9"/>
		<text transform="matrix(0.9707 -0.2402 0.2402 0.9707 68.7146 44.7929)" class="st3 st4">7</text>
		<path class="st2" d="M90.1,54.2L88.7,45"/>
		<text transform="matrix(0.9887 -0.1499 0.1499 0.9887 84.4942 41.3718)" class="st3 st4">5</text>
		<path class="st2" d="M109.1,52.4l-0.3-9.3"/>
		<text transform="matrix(0.9996 -2.998651e-02 2.998651e-02 0.9996 105.0938 39.2113)" class="st3 st4">3</text>
		<path class="st2" d="M120.4,52.4l0.3-9.3"/>
		<text transform="matrix(0.9994 3.472507e-02 -3.472507e-02 0.9994 117.712 38.9388)" class="st3 st4">2</text>
		<path class="st2" d="M133,53.4l1-9.2"/>
		<text transform="matrix(0.9938 0.1108 -0.1108 0.9938 131.0747 39.6373)" class="st3 st4">1</text>
		<path class="st2" d="M147.1,55.5l1.8-9.1"/>
		<text transform="matrix(0.9808 0.1951 -0.1951 0.9808 146.4101 41.644)" class="st3 st4">0</text>
		<path class="st5" d="M162.6,59.4l2.7-8.9"/>
		<text transform="matrix(0.9573 0.2892 -0.2892 0.9573 163.4595 45.6345)" class="st6 st3 st4">1</text>
		<path class="st5" d="M179.5,65.5l3.6-8.5"/>
		<text transform="matrix(0.9207 0.3903 -0.3903 0.9207 182.2698 52.1054)" class="st6 st3 st4">2</text>
		<path class="st5" d="M197.5,74.4l4.6-8.1"/>
		<text transform="matrix(0.8676 0.4973 -0.4973 0.8676 201.3176 61.2549)" class="st6 st3 st4">3</text>
		<path class="st7" d="M82.2,55.5l-1.3-6.8"/>
		<path class="st7" d="M99,53.1l-0.7-6.9"/>
		<path class="st7" d="M139.9,54.3l1.1-6.8"/>
		<path class="st7" d="M154.7,57.3l1.7-6.8"/>
		<path class="st8" d="M154.7,57.3l1.7-6.8"/>
		<path class="st9" d="M46.7,71.9L46.7,71.9"/>
		<text transform="matrix(0.908 -0.4191 0.4191 0.908 46.8439 83.4406)" class="st3 st10">20</text>
		<path class="st9" d="M70.6,63.1L70.6,63.1"/>
		<text transform="matrix(0.9627 -0.2707 0.2707 0.9627 68.7146 74.3986)" class="st3 st10">40</text>
		<path class="st9" d="M95.5,58.1L95.5,58.1"/>
		<text transform="matrix(0.9931 -0.1175 0.1175 0.9931 92.1439 68.9068)" class="st3 st10">60</text>
		<path class="st9" d="M120.9,57.1L120.9,57.1"/>
		<text transform="matrix(0.9992 3.925982e-02 -3.925982e-02 0.9992 115.6239 67.2723)" class="st3 st10">80</text>
		<path class="st9" d="M146.2,60.1L146.2,60.1"/>
		<text transform="matrix(0.9808 0.1951 -0.1951 0.9808 135.8877 68.6125)" class="st3 st10">100</text>
		<path class="st11" d="M35.4,77.6L35.4,77.6"/>
		<path class="st11" d="M58.4,67L58.4,67"/>
		<path class="st11" d="M82.9,60.1L82.9,60.1"/>
		<path class="st11" d="M108.2,57.1L108.2,57.1"/>
		<path class="st11" d="M133.6,58.1L133.6,58.1"/>
		<text transform="matrix(1 0 0 1 98.0542 97.23)" class="st3 st4">rAudio</text>
	</g>
	<rect x="10" y="10" class="st12" width="210.1" height="105"/>
</g>
<g id="Layer_3">
	
		<image style="overflow:visible;enable-background:new    ;" width="239" height="135" xlink:href="946E6902.png"  transform="matrix(0.9582 0 0 0.9333 -1.4469 2)">
	</image>
</g>
<g id="Layer_4">
	<polygon class="st13" points="220,115 10,115 10,10 14,14 14,111 216,111 	"/>
	<polygon class="st14" points="220,115 216,111 216,14 14,14 10,10 220,10 	"/>
</g>
<g id="Layer_2">
	<path d="M0,0v230h230V0H0z M220,115H10V10h210V115z"/>
</g>
</svg>
