<?xml version="1.0" encoding="utf-8"?>
<!-- Generator: Adobe Illustrator 19.2.1, SVG Export Plug-In . SVG Version: 6.00 Build 0)  -->
<svg version="1.1" id="Layer_1" xmlns="http://www.w3.org/2000/svg" xmlns:xlink="http://www.w3.org/1999/xlink" x="0px" y="0px"
	 viewBox="0 0 230 230" style="enable-background:new 0 0 230 230;" xml:space="preserve">
<style type="text/css">
	.st0{opacity:0.5;fill:#FFFFFF;}
	.st1{opacity:0.5;fill:#35495E;}
	.st2{opacity:0.7;fill:#1694D3;}
	.st3{fill:#FFFFFF;}
	.st4{fill:#FFFFFF;stroke:#000000;stroke-width:5.000000e-002;stroke-miterlimit:10;}
</style>
<rect class="st0" width="230" height="230"/>
<rect x="50" class="st1" width="130" height="50"/>
<rect y="50" class="st1" width="50" height="130"/>
<rect x="180" y="50" class="st1" width="50" height="130"/>
<rect x="50" y="180" class="st1" width="130" height="50"/>
<rect x="50" y="50" class="st2" width="130" height="130"/>
<g>
	<path class="st3" d="M105.9,31.9c0-0.1,0-0.2-0.1-0.3s-0.2-0.1-0.3-0.1h-2.7c-0.1,0-0.2,0-0.3,0.1s-0.1,0.2-0.1,0.3v2.7
		c0,0.1,0,0.2,0.1,0.3s0.2,0.1,0.3,0.1h2.7c0.1,0,0.2,0,0.3-0.1s0.1-0.2,0.1-0.3V31.9z"/>
	<path class="st3" d="M105.9,26.4c0-0.1,0-0.2-0.1-0.3c-0.1-0.1-0.2-0.1-0.3-0.1h-2.7c-0.1,0-0.2,0-0.3,0.1
		c-0.1,0.1-0.1,0.2-0.1,0.3v2.7c0,0.1,0,0.2,0.1,0.3c0.1,0.1,0.2,0.1,0.3,0.1h2.7c0.1,0,0.2,0,0.3-0.1c0.1-0.1,0.1-0.2,0.1-0.3V26.4
		z"/>
	<path class="st3" d="M105.9,20.9c0-0.1,0-0.2-0.1-0.3c-0.1-0.1-0.2-0.1-0.3-0.1h-2.7c-0.1,0-0.2,0-0.3,0.1
		c-0.1,0.1-0.1,0.2-0.1,0.3v2.7c0,0.1,0,0.2,0.1,0.3s0.2,0.1,0.3,0.1h2.7c0.1,0,0.2,0,0.3-0.1s0.1-0.2,0.1-0.3V20.9z"/>
	<path class="st3" d="M127.8,31.9c0-0.1,0-0.2-0.1-0.3s-0.2-0.1-0.3-0.1h-19.2c-0.1,0-0.2,0-0.3,0.1s-0.1,0.2-0.1,0.3v2.7
		c0,0.1,0,0.2,0.1,0.3s0.2,0.1,0.3,0.1h19.2c0.1,0,0.2,0,0.3-0.1s0.1-0.2,0.1-0.3V31.9z"/>
	<path class="st3" d="M105.9,15.4c0-0.1,0-0.2-0.1-0.3s-0.2-0.1-0.3-0.1h-2.7c-0.1,0-0.2,0-0.3,0.1s-0.1,0.2-0.1,0.3v2.7
		c0,0.1,0,0.2,0.1,0.3s0.2,0.1,0.3,0.1h2.7c0.1,0,0.2,0,0.3-0.1s0.1-0.2,0.1-0.3V15.4z"/>
	<path class="st3" d="M127.8,26.4c0-0.1,0-0.2-0.1-0.3c-0.1-0.1-0.2-0.1-0.3-0.1h-19.2c-0.1,0-0.2,0-0.3,0.1
		c-0.1,0.1-0.1,0.2-0.1,0.3v2.7c0,0.1,0,0.2,0.1,0.3c0.1,0.1,0.2,0.1,0.3,0.1h19.2c0.1,0,0.2,0,0.3-0.1c0.1-0.1,0.1-0.2,0.1-0.3
		V26.4z"/>
	<path class="st3" d="M127.8,20.9c0-0.1,0-0.2-0.1-0.3c-0.1-0.1-0.2-0.1-0.3-0.1h-19.2c-0.1,0-0.2,0-0.3,0.1
		c-0.1,0.1-0.1,0.2-0.1,0.3v2.7c0,0.1,0,0.2,0.1,0.3s0.2,0.1,0.3,0.1h19.2c0.1,0,0.2,0,0.3-0.1s0.1-0.2,0.1-0.3V20.9z"/>
	<path class="st3" d="M127.8,15.4c0-0.1,0-0.2-0.1-0.3s-0.2-0.1-0.3-0.1h-19.2c-0.1,0-0.2,0-0.3,0.1s-0.1,0.2-0.1,0.3v2.7
		c0,0.1,0,0.2,0.1,0.3s0.2,0.1,0.3,0.1h19.2c0.1,0,0.2,0,0.3-0.1s0.1-0.2,0.1-0.3V15.4z"/>
</g>
<path class="st4" d="M156.5,27.6c-0.7,0.7-1.6,1.1-2.6,1.1c-1,0-1.9-0.4-2.6-1.1c-0.7-0.7-1.1-1.6-1.1-2.6s0.4-1.9,1.1-2.6
	c0.7-0.7,1.6-1.1,2.6-1.1c1,0,1.9,0.4,2.6,1.1c0.7,0.7,1.1,1.6,1.1,2.6S157.2,26.9,156.5,27.6L156.5,27.6z M164.9,23.4
	c0-0.1,0-0.2-0.1-0.3c-0.1-0.1-0.2-0.2-0.3-0.2l-2.6-0.4c-0.1-0.5-0.3-0.9-0.6-1.4c0.2-0.2,0.4-0.6,0.8-1s0.6-0.8,0.7-1
	c0.1-0.1,0.1-0.2,0.1-0.3c0-0.1,0-0.2-0.1-0.3c-0.3-0.5-1.1-1.3-2.4-2.4c-0.1-0.1-0.2-0.1-0.4-0.1c-0.1,0-0.3,0-0.3,0.1l-2,1.5
	c-0.4-0.2-0.8-0.4-1.3-0.5l-0.4-2.6c0-0.1-0.1-0.2-0.2-0.3c-0.1-0.1-0.2-0.1-0.3-0.1h-3.2c-0.3,0-0.4,0.1-0.5,0.4
	c-0.1,0.5-0.3,1.4-0.4,2.7c-0.4,0.1-0.9,0.3-1.3,0.5l-2-1.5c-0.1-0.1-0.2-0.1-0.4-0.1c-0.2,0-0.7,0.3-1.3,1
	c-0.7,0.7-1.2,1.2-1.4,1.5c-0.1,0.1-0.1,0.2-0.1,0.3c0,0.1,0,0.2,0.1,0.3c0.6,0.8,1.1,1.4,1.5,2c-0.2,0.4-0.4,0.9-0.6,1.3l-2.7,0.4
	c-0.1,0-0.2,0.1-0.3,0.2c-0.1,0.1-0.1,0.2-0.1,0.3v3.2c0,0.1,0,0.2,0.1,0.3c0.1,0.1,0.2,0.2,0.3,0.2l2.6,0.4
	c0.1,0.5,0.3,0.9,0.6,1.4c-0.2,0.2-0.4,0.6-0.8,1c-0.3,0.4-0.6,0.8-0.7,1c-0.1,0.1-0.1,0.2-0.1,0.3c0,0.1,0,0.2,0.1,0.3
	c0.4,0.5,1.2,1.3,2.4,2.4c0.1,0.1,0.2,0.2,0.4,0.2c0.1,0,0.3,0,0.4-0.1l2-1.5c0.4,0.2,0.8,0.4,1.3,0.5l0.4,2.6
	c0,0.1,0.1,0.2,0.2,0.3c0.1,0.1,0.2,0.1,0.3,0.1h3.2c0.3,0,0.4-0.1,0.5-0.4c0.1-0.5,0.3-1.4,0.4-2.7c0.4-0.1,0.9-0.3,1.3-0.5l2,1.5
	c0.1,0.1,0.3,0.1,0.4,0.1c0.2,0,0.7-0.3,1.3-1c0.7-0.7,1.2-1.2,1.4-1.5c0.1-0.1,0.1-0.2,0.1-0.3c0-0.1,0-0.2-0.1-0.4
	c-0.7-0.8-1.2-1.5-1.5-2c0.2-0.4,0.4-0.8,0.6-1.3l2.6-0.4c0.1,0,0.2-0.1,0.3-0.2c0.1-0.1,0.1-0.2,0.1-0.3V23.4z"/>
<g>
	<path class="st3" d="M89.5,26.7c0-0.3-0.1-0.5-0.4-0.6c-0.3-0.1-0.5-0.2-0.9-0.2H72.7c-0.6,0-1.3,0.2-2,0.5
		c-0.7,0.3-1.3,0.8-1.7,1.2l-4.8,5.7c-0.3,0.3-0.4,0.6-0.4,0.9c0,0.3,0.1,0.5,0.4,0.6c0.3,0.1,0.5,0.2,0.9,0.2h15.5
		c0.6,0,1.3-0.2,2-0.5c0.7-0.3,1.3-0.8,1.7-1.2l4.8-5.7C89.4,27.3,89.5,27,89.5,26.7L89.5,26.7z"/>
	<path class="st3" d="M84.6,21.8c0-0.9-0.3-1.6-0.9-2.3c-0.6-0.6-1.4-0.9-2.3-0.9h-7.8v-0.5c0-0.9-0.3-1.6-0.9-2.3s-1.4-0.9-2.3-0.9
		h-4.6c-0.9,0-1.6,0.3-2.3,0.9c-0.6,0.6-0.9,1.4-0.9,2.3v13.7c0,0,0,0.1,0,0.2c0,0.1,0,0.1,0,0.2l0.1-0.1l4.8-5.7
		c0.6-0.7,1.4-1.3,2.3-1.7c1-0.5,1.9-0.7,2.8-0.7h11.9V21.8z"/>
</g>
<g>
	<path class="st3" d="M121.9,206.8c-1.2,0-2.2,0.4-3.1,1.2l-5.1-2.6c0-0.2,0-0.4,0-0.5c0-0.1,0-0.3,0-0.5l5.1-2.6
		c0.9,0.8,1.9,1.2,3.1,1.2c1.3,0,2.3-0.4,3.2-1.3c0.9-0.9,1.3-2,1.3-3.2c0-1.3-0.4-2.3-1.3-3.2c-0.9-0.9-2-1.3-3.2-1.3
		c-1.3,0-2.3,0.4-3.2,1.3c-0.9,0.9-1.3,2-1.3,3.2c0,0.1,0,0.3,0,0.5l-5.1,2.6c-0.9-0.8-1.9-1.2-3.1-1.2c-1.3,0-2.3,0.4-3.2,1.3
		c-0.9,0.9-1.3,2-1.3,3.2c0,1.3,0.4,2.3,1.3,3.2c0.9,0.9,2,1.3,3.2,1.3c1.2,0,2.2-0.4,3.1-1.2l5.1,2.6c0,0.2,0,0.4,0,0.5
		c0,1.3,0.4,2.3,1.3,3.2c0.9,0.9,2,1.3,3.2,1.3c1.3,0,2.3-0.4,3.2-1.3c0.9-0.9,1.3-2,1.3-3.2c0-1.3-0.4-2.3-1.3-3.2
		C124.2,207.3,123.2,206.8,121.9,206.8L121.9,206.8z"/>
</g>
<g>
	<path class="st3" d="M74,200c-1.5-2.1-3.5-3.2-5.9-3.2h-3.2c-0.1,0-0.2,0-0.3,0.1c-0.1,0.1-0.1,0.2-0.1,0.3v2.7
		c0,0.1,0,0.2,0.1,0.3c0.1,0.1,0.2,0.1,0.3,0.1h3.2c0.4,0,0.8,0.1,1.2,0.2s0.7,0.3,0.9,0.5c0.2,0.2,0.5,0.5,0.7,0.8
		c0.2,0.3,0.4,0.6,0.6,0.9c0.1,0.3,0.3,0.6,0.5,1C72.8,202.2,73.4,200.9,74,200L74,200z"/>
	<path class="st3" d="M89.9,211.7c0.1-0.1,0.1-0.2,0.1-0.3c0-0.1,0-0.2-0.1-0.3l-4.6-4.6c-0.1-0.1-0.2-0.1-0.3-0.1
		c-0.1,0-0.2,0-0.3,0.1c-0.1,0.1-0.1,0.2-0.1,0.3v2.7h-3.7c-0.4,0-0.8-0.1-1.2-0.2c-0.4-0.1-0.7-0.3-0.9-0.5
		c-0.2-0.2-0.5-0.5-0.7-0.8c-0.2-0.3-0.4-0.6-0.6-0.9c-0.1-0.3-0.3-0.6-0.5-1c-0.7,1.7-1.4,3-1.9,3.9c0.3,0.4,0.5,0.7,0.8,1
		c0.3,0.3,0.5,0.5,0.8,0.8c0.2,0.2,0.5,0.4,0.8,0.6c0.3,0.2,0.6,0.3,0.8,0.4c0.2,0.1,0.5,0.2,0.9,0.3c0.4,0.1,0.7,0.1,0.9,0.1
		c0.2,0,0.6,0.1,1,0.1c0.4,0,0.8,0,1,0c0.3,0,0.7,0,1.2,0c0.5,0,0.9,0,1.2,0v2.7c0,0.1,0,0.2,0.1,0.3s0.2,0.1,0.3,0.1
		c0.1,0,0.2,0,0.3-0.1L89.9,211.7z"/>
	<path class="st3" d="M89.9,198.9c0.1-0.1,0.1-0.2,0.1-0.3c0-0.1,0-0.2-0.1-0.3l-4.6-4.6c-0.1-0.1-0.2-0.1-0.3-0.1
		c-0.1,0-0.2,0-0.3,0.1c-0.1,0.1-0.1,0.2-0.1,0.3v2.7h-3.7c-0.6,0-1.3,0.1-1.8,0.2s-1.1,0.4-1.5,0.6c-0.4,0.2-0.9,0.6-1.3,1
		c-0.4,0.4-0.8,0.8-1.1,1.2c-0.3,0.4-0.6,0.9-0.9,1.4s-0.6,1.1-0.8,1.5c-0.2,0.4-0.4,1-0.7,1.6c-0.4,1-0.8,1.9-1.1,2.4
		c-0.2,0.4-0.4,0.8-0.6,1.1c-0.2,0.3-0.4,0.6-0.7,0.9c-0.3,0.3-0.6,0.5-1,0.6c-0.4,0.1-0.8,0.2-1.2,0.2h-3.2c-0.1,0-0.2,0-0.3,0.1
		c-0.1,0.1-0.1,0.2-0.1,0.3v2.7c0,0.1,0,0.2,0.1,0.3c0.1,0.1,0.2,0.1,0.3,0.1h3.2c0.6,0,1.3-0.1,1.8-0.2c0.6-0.2,1.1-0.4,1.5-0.6
		c0.4-0.2,0.9-0.6,1.3-1c0.4-0.4,0.8-0.8,1.1-1.2c0.3-0.4,0.6-0.9,0.9-1.4c0.3-0.6,0.6-1.1,0.8-1.5c0.2-0.4,0.4-1,0.7-1.6
		c0.4-1,0.8-1.9,1.1-2.4c0.2-0.4,0.4-0.8,0.6-1.1c0.2-0.3,0.4-0.6,0.7-0.9c0.3-0.3,0.6-0.5,1-0.6c0.4-0.1,0.8-0.2,1.2-0.2h3.7v2.7
		c0,0.1,0,0.2,0.1,0.3s0.2,0.1,0.3,0.1c0.1,0,0.2,0,0.3-0.1L89.9,198.9z"/>
</g>
<g>
	<path class="st3" d="M152.3,197.2c0-0.2-0.1-0.5-0.3-0.6s-0.4-0.3-0.6-0.3c-0.2,0-0.5,0.1-0.6,0.3l-4.8,4.8h-3.7
		c-0.2,0-0.5,0.1-0.6,0.3c-0.2,0.2-0.3,0.4-0.3,0.6v5.5c0,0.2,0.1,0.5,0.3,0.6c0.2,0.2,0.4,0.3,0.6,0.3h3.7l4.8,4.8
		c0.2,0.2,0.4,0.3,0.6,0.3c0.2,0,0.5-0.1,0.6-0.3s0.3-0.4,0.3-0.6V197.2z"/>
	<path class="st3" d="M155.6,208.4c0.7-0.3,1.2-0.7,1.6-1.3c0.4-0.6,0.6-1.3,0.6-2c0-0.7-0.2-1.4-0.6-2c-0.4-0.6-0.9-1.1-1.6-1.3
		c-0.1,0-0.2-0.1-0.4-0.1c-0.2,0-0.5,0.1-0.6,0.3c-0.2,0.2-0.3,0.4-0.3,0.6c0,0.2,0.1,0.4,0.2,0.5c0.1,0.1,0.3,0.3,0.4,0.4
		c0.2,0.1,0.3,0.2,0.5,0.3c0.2,0.1,0.3,0.3,0.4,0.5c0.1,0.2,0.2,0.5,0.2,0.8c0,0.3-0.1,0.6-0.2,0.8c-0.1,0.2-0.3,0.4-0.4,0.5
		c-0.2,0.1-0.3,0.2-0.5,0.3s-0.3,0.2-0.4,0.4c-0.1,0.1-0.2,0.3-0.2,0.5c0,0.3,0.1,0.5,0.3,0.6c0.2,0.2,0.4,0.3,0.6,0.3
		C155.4,208.4,155.5,208.4,155.6,208.4L155.6,208.4z"/>
	<path class="st3" d="M157,211.7c1.3-0.6,2.4-1.5,3.2-2.7c0.8-1.2,1.2-2.6,1.2-4c0-1.5-0.4-2.8-1.2-4s-1.9-2.1-3.2-2.7
		c-0.1,0-0.2-0.1-0.4-0.1c-0.2,0-0.5,0.1-0.6,0.3s-0.3,0.4-0.3,0.6c0,0.4,0.2,0.7,0.6,0.8c0.5,0.3,0.9,0.5,1.1,0.6
		c0.7,0.5,1.3,1.2,1.6,1.9c0.4,0.8,0.6,1.6,0.6,2.5c0,0.9-0.2,1.7-0.6,2.5c-0.4,0.8-0.9,1.4-1.6,1.9c-0.2,0.1-0.6,0.4-1.1,0.6
		c-0.4,0.2-0.6,0.5-0.6,0.8c0,0.2,0.1,0.5,0.3,0.6c0.2,0.2,0.4,0.3,0.7,0.3C156.8,211.8,156.9,211.8,157,211.7L157,211.7z"/>
	<path class="st3" d="M158.5,215.1c2-0.9,3.6-2.2,4.8-4.1c1.2-1.8,1.8-3.8,1.8-6c0-2.2-0.6-4.2-1.8-6c-1.2-1.8-2.8-3.2-4.8-4.1
		c-0.1,0-0.2-0.1-0.4-0.1c-0.2,0-0.5,0.1-0.6,0.3c-0.2,0.2-0.3,0.4-0.3,0.6c0,0.3,0.2,0.6,0.6,0.8c0.1,0,0.2,0.1,0.3,0.2
		c0.1,0.1,0.3,0.1,0.3,0.1c0.4,0.2,0.8,0.5,1.2,0.7c1.2,0.9,2.1,1.9,2.7,3.2c0.7,1.3,1,2.7,1,4.1c0,1.5-0.3,2.8-1,4.1
		c-0.7,1.3-1.6,2.4-2.7,3.2c-0.3,0.2-0.7,0.5-1.2,0.7c-0.1,0-0.2,0.1-0.3,0.2c-0.1,0.1-0.3,0.1-0.3,0.1c-0.4,0.2-0.6,0.5-0.6,0.8
		c0,0.2,0.1,0.5,0.3,0.6c0.2,0.2,0.4,0.3,0.6,0.3C158.2,215.2,158.4,215.1,158.5,215.1L158.5,215.1z"/>
</g>
<g>
	<path d="M35.3,104.7l-17.5,10.1c-0.1,0.1-0.1,0.2-0.2,0.3v-9.7c0-0.2-0.1-0.5-0.3-0.6c-0.2-0.2-0.4-0.3-0.6-0.3h-1.8
		c-0.2,0-0.5,0.1-0.6,0.3s-0.3,0.4-0.3,0.6v20.1c0,0.2,0.1,0.5,0.3,0.6s0.4,0.3,0.6,0.3h1.8c0.2,0,0.5-0.1,0.6-0.3
		c0.2-0.2,0.3-0.4,0.3-0.6v-9.7c0,0.1,0.1,0.2,0.2,0.3l17.5,10.1c0.2,0.2,0.3,0.2,0.5,0.2c0.1-0.1,0.2-0.2,0.2-0.5v-21
		c0-0.2-0.1-0.4-0.2-0.5C35.7,104.5,35.5,104.5,35.3,104.7L35.3,104.7z"/>
</g>
<g>
	<path d="M194.7,126.3l17.5-10.1c0.1-0.1,0.1-0.2,0.2-0.3v9.7c0,0.2,0.1,0.5,0.3,0.6s0.4,0.3,0.6,0.3h1.8c0.2,0,0.5-0.1,0.6-0.3
		s0.3-0.4,0.3-0.6v-20.1c0-0.2-0.1-0.5-0.3-0.6s-0.4-0.3-0.6-0.3h-1.8c-0.2,0-0.5,0.1-0.6,0.3s-0.3,0.4-0.3,0.6v9.7
		c0-0.1-0.1-0.2-0.2-0.3l-17.5-10.1c-0.2-0.2-0.3-0.2-0.5-0.2c-0.1,0.1-0.2,0.2-0.2,0.5v21c0,0.2,0.1,0.4,0.2,0.5
		C194.3,126.5,194.5,126.5,194.7,126.3L194.7,126.3z"/>
</g>
<g>
	<path d="M125.2,115.9c0.2-0.1,0.3-0.3,0.3-0.4s-0.1-0.3-0.3-0.4l-19-10.5c-0.2-0.1-0.4-0.1-0.6,0c-0.2,0.1-0.2,0.3-0.2,0.5v21
		c0,0.2,0.1,0.4,0.2,0.5c0.2,0.1,0.3,0.1,0.6,0L125.2,115.9z"/>
</g>
<g>
	<path d="M88.2,104.9c0-0.2-0.1-0.5-0.3-0.6s-0.4-0.3-0.6-0.3H67.2c-0.2,0-0.5,0.1-0.6,0.3s-0.3,0.4-0.3,0.6v20.1
		c0,0.2,0.1,0.5,0.3,0.6s0.4,0.3,0.6,0.3h20.1c0.2,0,0.5-0.1,0.6-0.3s0.3-0.4,0.3-0.6V104.9z"/>
</g>
<g>
	<path d="M163.3,104.9c0-0.2-0.1-0.5-0.3-0.6s-0.4-0.3-0.6-0.3h-7.3c-0.2,0-0.5,0.1-0.6,0.3s-0.3,0.4-0.3,0.6v20.1
		c0,0.2,0.1,0.5,0.3,0.6s0.4,0.3,0.6,0.3h7.3c0.2,0,0.5-0.1,0.6-0.3s0.3-0.4,0.3-0.6V104.9z"/>
	<path d="M150.5,104.9c0-0.2-0.1-0.5-0.3-0.6s-0.4-0.3-0.6-0.3h-7.3c-0.2,0-0.5,0.1-0.6,0.3s-0.3,0.4-0.3,0.6v20.1
		c0,0.2,0.1,0.5,0.3,0.6s0.4,0.3,0.6,0.3h7.3c0.2,0,0.5-0.1,0.6-0.3s0.3-0.4,0.3-0.6V104.9z"/>
</g>
<g>
</g>
<g>
</g>
<g>
</g>
<g>
</g>
<g>
</g>
<g>
</g>
</svg>
