<?xml version="1.0" encoding="utf-8"?>
<!-- Generator: Adobe Illustrator 19.2.1, SVG Export Plug-In . SVG Version: 6.00 Build 0)  -->
<svg version="1.1" id="Layer_1" xmlns="http://www.w3.org/2000/svg" xmlns:xlink="http://www.w3.org/1999/xlink" x="0px" y="0px"
	 viewBox="0 0 40 40" style="enable-background:new 0 0 40 40;" xml:space="preserve">
<style type="text/css">
	.st0{fill:#990000;}
	.st1{fill:#FFFFFF;}
</style>
<g>
	<rect y="0" class="st0" width="40" height="40"/>
	<path class="st1" d="M24.4,16.5c-3.5,3.7-7,7.3-10.5,10.9c0-4.9,0-9.8,0-14.8c2,2.1,4,4.1,6.1,6.2c2-2.1,4-4.1,6.1-6.2
		c0,0,0,8.4,0,12.6c0,0,0,0.9-0.8,0.9c-0.9,0-0.9-0.9-0.9-0.9C24.4,22.6,24.4,16.5,24.4,16.5z M15.6,16.5c0,2.3,0,4.6,0,6.9
		c1.1-1.2,2.2-2.3,3.3-3.5C17.8,18.8,16.7,17.6,15.6,16.5z"/>
	<path class="st1" d="M35.6,20c0,8.6-7,15.6-15.6,15.6S4.4,28.6,4.4,20S11.4,4.4,20,4.4S35.6,11.4,35.6,20z M33.9,20
		c0-7.7-6.3-13.9-13.9-13.9C12.3,6.1,6.1,12.3,6.1,20S12.3,33.9,20,33.9C27.7,33.9,33.9,27.7,33.9,20z"/>
</g>
</svg>
